#!OML:ASF F:\VICON\USERDATA\INSTALL\rory3\rory3.ASF
:FULLY-SPECIFIED
:DEGREES
28
root 0.6056449708833894 17.755928545974058 -9.660276669818993 -1.5450469746394015 -3.97965659210165 -6.141025415809905
lfemur -25.953125329349973 -3.875758809777027 -13.21070664469166
ltibia 17.29650610171905
lfoot -4.229973979932058 1.9973917553484917
ltoes -7.0123791930829835
rfemur 9.320159366404043 6.766208530248945 32.4257913358626
rtibia 26.776021933563307
rfoot -16.109055317083293 -3.849130177518019
rtoes -2.8954366965740954
lowerback 1.0 2.175505761898869 5.377051177178088
upperback -0.14701317272874323 3.502841823349058 1.6493641697105794
thorax -5.163393466490562 1.590681631984593 -1.9160207827532132
lowerneck -15.0536685282708 -3.245937816870724 -1.192699709932382
upperneck 22.709627379598906 -4.359201289978737 -0.036568490313454015
head 9.630264377852969 -2.095023555121357 -0.3299975852568279
lclavicle 1.5857065655013062e-15 -2.684708325410764e-15
lhumerus -37.25478607916797 14.35677433318471 76.7803745570551
lradius 12.744732259260738
lwrist -6.784050127040862
lhand -25.30445094019153 26.276577139927635
lfingers nan
lthumb 1.3367656512093204 56.44642673667532
rclavicle 1.330106924445738e-15 -2.938518797640671e-15
rhumerus -21.471134642386033 -13.978156391780779 -81.18043197499435
rradius 25.362660996387962
rwrist 2.7427938220376595
rhand -18.82744377862494 1.0
rfingers nan
rthumb 7.486689833180935 -6.796960776040638
29
root 0.6898060823914157 17.725353402572125 -8.437392984685266 -2.2858817175219897 -4.076744884592876 -4.888754458812182
lfemur -25.024322642572287 -2.8802198388009694 -15.839555939755824
ltibia 22.264829202734752
lfoot -4.343228315934272 -0.8188162035085476
ltoes -0.17605089856458367
rfemur 8.644756985610014 6.279830197974803 30.554299031117072
rtibia 32.43116970566756
rfoot -13.42892181655684 -2.1123663568073106
rtoes -2.7012246995630216
lowerback 1.0 2.264642338151133 4.1740790484396495
upperback -0.1191196543976982 3.400404818935303 1.1423624366140825
thorax -5.129031823431836 1.5538078412216034 -1.8043492227763485
lowerneck -14.901920647604118 -3.3380457592076125 -1.3594381583070472
upperneck 22.87372778424316 -4.580030227495078 0.26808763096965305
head 9.66190221998667 -2.154843451695621 -0.2392636254946085
lclavicle -3.013848483246415e-15 -2.192547015727337e-15
lhumerus -37.37352094102864 14.131694410209242 76.76149099595928
lradius 13.552904744486531
lwrist -6.989741584050895
lhand -25.155231280123687 26.201410666656418
lfingers nan
lthumb 1.567950084235696 56.48604879331061
rclavicle -3.2330206276185095e-15 -2.359418285563857e-15
rhumerus -23.077040148063208 -15.146817405072804 -80.77064758525728
rradius 24.94288497315383
rwrist 3.6528933921535525
rhand -18.579276218696105 1.0
rfingers nan
rthumb 7.833606911806462 -6.709818210090904
30
root 0.7909164770481604 17.84563883255457 -7.235475768852963 -3.268466494278944 -3.7335121206559485 -3.777887351423198
lfemur -23.662132884745205 -2.593690683074499 -18.22240984302283
ltibia 26.23987950477384
lfoot -3.8739462624336545 -2.9961427056896697
ltoes 0.45862548368129463
rfemur 6.802792079393404 5.291845883202198 28.581168691391884
rtibia 39.52655248639104
rfoot -7.530826336006499 -0.11868977628555655
rtoes -0.9162173094582764
lowerback 1.0 2.1394334126022923 2.8649918517386324
upperback -0.018482754081967562 3.121899077423771 0.6640151490905774
thorax -5.196942748392495 1.4926787926613243 -1.444890617598429
lowerneck -14.844266929715362 -3.336420028427648 -1.2995420372056805
upperneck 22.949724213662385 -4.663038499372238 0.27843074462183137
head 9.72568502131459 -2.166904117191153 -0.2581279052387997
lclavicle -3.867664500218828e-15 -1.787103336748166e-15
lhumerus -37.083612861377 12.97065591525423 77.2756979629967
lradius 15.267788312640063
lwrist -3.874156765356649
lhand -25.10837171441896 25.88318915256668
lfingers nan
lthumb 1.7239092426496287 56.31944226333208
rclavicle -4.160849846590213e-15 -2.1627012619491637e-15
rhumerus -24.04304437438229 -16.62476466264076 -80.52179504084603
rradius 24.335868744121196
rwrist 4.013406435890031
rhand -18.478037859112057 1.0
rfingers nan
rthumb 7.741312461317557 -6.739386730685086
31
root 0.8639116041858339 17.914210207850612 -7.088847337087445 -3.923194412826811 -3.799829833346135 -2.878345985578642
lfemur -21.258833110433244 -1.9461970286229358 -20.121242813149127
ltibia 28.468710672962942
lfoot -4.605578627365343 -3.259303800338799
ltoes -0.6676786001839456
rfemur 2.6016959897101177 4.189938912457118 26.711089328285716
rtibia 49.011708131379265
rfoot 2.167679890095622 1.7456234374718633
rtoes 4.46081815876504
lowerback 1.0 2.0784309439643107 1.853127975073425
upperback 0.07268919016087019 2.9500428744326515 0.3107120076075831
thorax -5.275554064299984 1.433287459717178 -1.1590124657405092
lowerneck -15.005999731851672 -3.2594887097184158 -1.4410545081085442
upperneck 23.017278899149144 -4.511673023351254 0.31066900967977157
head 9.782992407896103 -2.1062413191194023 -0.23289920089604382
lclavicle 2.043350986937085e-15 -6.465321856777448e-16
lhumerus -36.617191865480976 11.704982170045877 77.83741241774534
lradius 16.89913686014919
lwrist -0.2211964809668392
lhand -26.058808793520807 24.253090613604833
lfingers nan
lthumb 0.6374539168592579 54.501619376593204
rclavicle 1.5596111722828032e-15 -1.0978274314718494e-15
rhumerus -25.03617165124548 -17.885225402386173 -80.26988217257174
rradius 23.457735856365513
rwrist 4.751141064919246
rhand -18.63008765030957 1.0
rfingers nan
rthumb 7.673109451992725 -6.982231913334003
32
root 0.9373723517324135 17.972609180670844 -6.280764804488113 -4.36150642401343 -4.017405820878359 -1.282241055193981
lfemur -17.628783953147007 -1.7208603456324614 -22.561282876661732
ltibia 28.003360492674695
lfoot -5.875165808274392 -2.037537870388588
ltoes -1.617395102975611
rfemur -3.5440621050305694 3.324218032036214 23.883634819016052
rtibia 59.85846568017239
rfoot 11.90684088834453 1.7185358481500446
rtoes 15.089145332022179
lowerback 1.0 1.967561267859111 0.3607242630605107
upperback 0.42104239163907475 2.5615438808223474 -0.09688055635889437
thorax -5.115999959911699 1.2950742168845308 -0.5783330593980329
lowerneck -15.325955969313176 -3.1621011122655682 -1.440472855682502
upperneck 22.89370648975426 -4.381577157537798 0.3574074198492982
head 9.83924126819077 -2.047366017187961 -0.20223938767232186
lclavicle -2.67277660242393e-15 -1.0806507576568942e-15
lhumerus -35.53800446341263 10.285374727795645 78.55981905872493
lradius 18.50375663547078
lwrist 2.2476396175064624
lhand -26.938786271908672 23.25370593657361
lfingers nan
lthumb -0.3999476003515722 53.281526709227954
rclavicle -3.044549714698371e-15 -1.3053897646362643e-15
rhumerus -26.06310759509217 -19.126400005652556 -79.93667194100684
rradius 22.73694589692739
rwrist 5.773504900706401
rhand -18.484001354239826 1.0
rfingers nan
rthumb 7.846983815937022 -7.397198575462602
33
root 0.9735080607023687 18.021323899456316 -5.80937404442766 -4.59945835403486 -4.172284794669596 -0.20201190087914211
lfemur -13.921055186160329 -1.5866486497487928 -24.119916859064915
ltibia 26.73113933524202
lfoot -7.896118095144166 -0.7675076814212836
ltoes -1.8082365045153581
rfemur -9.68871785670277 2.477691130464648 22.12885662822691
rtibia 68.77136786796352
rfoot 13.02683719779375 -0.6191228158737738
rtoes 18.516745618167374
lowerback 1.0 1.7062813849294218 -0.6125224082056633
upperback 0.5885872727484435 2.1278317042814217 -0.2866570133897468
thorax -5.170221942164487 1.0838245610059887 -0.15110744294163347
lowerneck -15.525980319673433 -3.0119271373085814 -1.6395584945768995
upperneck 22.838646195375972 -4.046200585607996 0.40972879848554317
head 9.888594413769757 -1.9185784454864296 -0.12971569101720304
lclavicle -1.9103154280216507e-15 -7.472190159522063e-16
lhumerus -34.17866649696886 8.460057445809573 79.36884543295155
lradius 20.170508516159874
lwrist 2.7656569698823827
lhand -27.66703069986703 22.80369592722376
lfingers nan
lthumb -1.222824049741305 52.625937900558895
rclavicle -2.6766463064837847e-15 -1.3700302291529977e-15
rhumerus -26.585916774302 -20.405718974193967 -79.67024365793112
rradius 21.983059097582014
rwrist 6.797073718585498
rhand -18.30498597983156 1.0
rfingers nan
rthumb 7.994600632858704 -7.744780651751569
34
root 0.9801624954867566 18.07285913136231 -5.419360879534716 -4.709464728420096 -4.034651863734112 0.15701025283171344
lfemur -10.715367936141138 -1.1773130878975668 -24.81075368404414
ltibia 25.830640136048082
lfoot -10.234530693606235 0.39205567928156704
ltoes -1.7037289169018164
rfemur -14.567672599289855 1.553066943428075 21.732411025177534
rtibia 73.61914785338256
rfoot 7.194067972042589 -3.0550700709697134
rtoes 14.558674657321339
lowerback 1.0 1.3334379875244133 -1.0023791102840396
upperback 0.7344003190694958 1.5926597655006185 -0.2022121465873603
thorax -5.174787340684441 0.8179412308996363 0.2907794689985237
lowerneck -15.678159165699077 -2.8608377333705826 -1.8180899527026877
upperneck 22.81325078673776 -3.687565407542886 0.32489383379703785
head 9.944074952862891 -1.7925256592534977 -0.10226417789830784
lclavicle 1.4856775769380476e-15 4.491344882385819e-16
lhumerus -32.854653944876816 7.002897837754788 79.75056290767746
lradius 21.40655439700622
lwrist 3.097809836540575
lhand -28.588971935998966 22.166110796084787
lfingers nan
lthumb -2.140061562227962 51.796783525798176
rclavicle 5.334229290118316e-16 -4.651517294845831e-16
rhumerus -27.248373760609525 -21.281993270623875 -79.4128125226834
rradius 21.512552381515412
rwrist 6.65244715652425
rhand -18.114484132421996 1.0
rfingers nan
rthumb 8.119346567222195 -7.621974444978167
35
root 0.9566672217817369 18.088255413802443 -5.023884515427476 -4.668572729589284 -3.5675153918999403 0.3198550419491428
lfemur -7.94638498676882 -0.8587621729640893 -25.22073170249723
ltibia 25.0589634435674
lfoot -11.552302156527231 1.2562816955138754
ltoes -1.6697718075274837
rfemur -18.92496207799164 0.5898926142842678 21.71806020627976
rtibia 74.96994626173345
rfoot 2.055077364834922 -4.606023657861908
rtoes 13.39973677849202
lowerback 1.0 0.9111747088710482 -1.2574314031138045
upperback 0.7661919023398059 1.0463446555633733 -0.08225451396540229
thorax -5.335992278254263 0.5694388294380752 0.8469686043935962
lowerneck -15.699519888265055 -2.781090964476403 -2.0062574206396304
upperneck 22.80469326459866 -3.4660628003908514 0.3049007556607777
head 9.96082763174032 -1.7155889594134643 -0.07357768881613473
lclavicle -4.333447166766354e-15 -2.3358233297217833e-15
lhumerus -31.310799190332464 5.191966644914228 80.22775785533472
lradius 22.681320073477295
lwrist 3.5537685734042874
lhand -28.734895860535605 21.900640275055704
lfingers nan
lthumb -2.052479737487997 51.77645910226265
rclavicle -5.215348281856807e-15 -3.1679154528499356e-15
rhumerus -28.16666360489718 -22.05001382163214 -79.0276389209969
rradius 21.4256744322979
rwrist 6.195203278451561
rhand -18.007284328476334 1.0
rfingers nan
rthumb 8.312635806346258 -7.796929464127779
